<mxfile host="app.diagrams.net" modified="2020-10-28T02:13:02.043Z" agent="5.0 (Windows NT 10.0; Win64; x64) AppleWebKit/537.36 (KHTML, like Gecko) Chrome/86.0.4240.75 Safari/537.36" etag="8y4GdkRt4pRpAGaUIxQN" version="13.8.0" type="github">
  <diagram id="4lZRCdYRw4Kqd6gMzmg7" name="Page-1">
    <mxGraphModel dx="1102" dy="526" grid="1" gridSize="10" guides="1" tooltips="1" connect="1" arrows="1" fold="1" page="1" pageScale="1" pageWidth="827" pageHeight="1169" math="0" shadow="0">
      <root>
        <mxCell id="0" />
        <mxCell id="1" parent="0" />
        <mxCell id="aF-3YaMJusMQCzdqKIsP-1" value="" style="rounded=0;whiteSpace=wrap;html=1;fillColor=#f5f5f5;strokeColor=#666666;gradientColor=#b3b3b3;" vertex="1" parent="1">
          <mxGeometry x="280" y="80" width="340" height="110" as="geometry" />
        </mxCell>
        <mxCell id="aF-3YaMJusMQCzdqKIsP-2" value="" style="rounded=0;whiteSpace=wrap;html=1;gradientColor=#7ea6e0;fillColor=#dae8fc;strokeColor=#6c8ebf;" vertex="1" parent="1">
          <mxGeometry x="280" y="190" width="340" height="110" as="geometry" />
        </mxCell>
        <mxCell id="aF-3YaMJusMQCzdqKIsP-7" style="edgeStyle=orthogonalEdgeStyle;rounded=0;orthogonalLoop=1;jettySize=auto;html=1;exitX=0.5;exitY=1;exitDx=0;exitDy=0;" edge="1" parent="1" source="aF-3YaMJusMQCzdqKIsP-3" target="aF-3YaMJusMQCzdqKIsP-4">
          <mxGeometry relative="1" as="geometry" />
        </mxCell>
        <mxCell id="aF-3YaMJusMQCzdqKIsP-3" value="Container1" style="rounded=0;whiteSpace=wrap;html=1;gradientColor=#ffa500;fillColor=#ffcd28;strokeColor=#d79b00;" vertex="1" parent="1">
          <mxGeometry x="320" y="110" width="90" height="50" as="geometry" />
        </mxCell>
        <mxCell id="aF-3YaMJusMQCzdqKIsP-8" style="edgeStyle=orthogonalEdgeStyle;rounded=0;orthogonalLoop=1;jettySize=auto;html=1;exitX=1;exitY=0.5;exitDx=0;exitDy=0;" edge="1" parent="1" source="aF-3YaMJusMQCzdqKIsP-4" target="aF-3YaMJusMQCzdqKIsP-5">
          <mxGeometry relative="1" as="geometry" />
        </mxCell>
        <mxCell id="aF-3YaMJusMQCzdqKIsP-4" value="docker0" style="rounded=0;whiteSpace=wrap;html=1;gradientColor=#ea6b66;fillColor=#f8cecc;strokeColor=#b85450;" vertex="1" parent="1">
          <mxGeometry x="330" y="220" width="70" height="30" as="geometry" />
        </mxCell>
        <mxCell id="aF-3YaMJusMQCzdqKIsP-9" style="edgeStyle=orthogonalEdgeStyle;rounded=0;orthogonalLoop=1;jettySize=auto;html=1;exitX=0.5;exitY=1;exitDx=0;exitDy=0;entryX=0.5;entryY=0;entryDx=0;entryDy=0;" edge="1" parent="1" source="aF-3YaMJusMQCzdqKIsP-5" target="aF-3YaMJusMQCzdqKIsP-6">
          <mxGeometry relative="1" as="geometry" />
        </mxCell>
        <mxCell id="aF-3YaMJusMQCzdqKIsP-5" value="flannel.1" style="rounded=0;whiteSpace=wrap;html=1;gradientColor=#ea6b66;fillColor=#f8cecc;strokeColor=#b85450;" vertex="1" parent="1">
          <mxGeometry x="480" y="220" width="70" height="30" as="geometry" />
        </mxCell>
        <mxCell id="aF-3YaMJusMQCzdqKIsP-6" value="eth0" style="rounded=0;whiteSpace=wrap;html=1;gradientColor=#ea6b66;fillColor=#f8cecc;strokeColor=#b85450;" vertex="1" parent="1">
          <mxGeometry x="480" y="290" width="70" height="20" as="geometry" />
        </mxCell>
        <mxCell id="aF-3YaMJusMQCzdqKIsP-10" value="&lt;b&gt;User Space&lt;/b&gt;" style="text;html=1;strokeColor=none;fillColor=none;align=center;verticalAlign=middle;whiteSpace=wrap;rounded=0;" vertex="1" parent="1">
          <mxGeometry x="540" y="125" width="70" height="20" as="geometry" />
        </mxCell>
        <mxCell id="aF-3YaMJusMQCzdqKIsP-11" value="&lt;b&gt;Kernel Space&lt;/b&gt;" style="text;html=1;strokeColor=none;fillColor=none;align=center;verticalAlign=middle;whiteSpace=wrap;rounded=0;" vertex="1" parent="1">
          <mxGeometry x="535" y="191" width="80" height="20" as="geometry" />
        </mxCell>
        <mxCell id="aF-3YaMJusMQCzdqKIsP-12" value="&lt;font color=&quot;#ff0000&quot;&gt;VxLAN&lt;/font&gt;" style="text;html=1;strokeColor=none;fillColor=none;align=center;verticalAlign=middle;whiteSpace=wrap;rounded=0;" vertex="1" parent="1">
          <mxGeometry x="535" y="260" width="40" height="20" as="geometry" />
        </mxCell>
      </root>
    </mxGraphModel>
  </diagram>
</mxfile>
